<svg width="127" height="40" viewBox="0 0 127 40" fill="none" xmlns="http://www.w3.org/2000/svg">
<g clip-path="url(#clip0_73_3402)">
<g clip-path="url(#clip1_73_3402)">
<path d="M21.1656 13.3854C21.1282 13.2798 21.0861 13.1798 21.037 13.0854C21.1025 13.1923 21.1445 13.2934 21.1656 13.3854Z" fill="#DDDDDD"/>
<path d="M52.3167 16.6208C51.9741 15.3219 51.1114 14.3719 49.4164 14.3719C46.9241 14.3719 45.8814 16.5094 45.8814 18.6799C45.8814 20.8503 46.9241 22.9878 49.4164 22.9878C51.2248 22.9878 52.2185 21.6731 52.3809 20.0265H54.3682C54.2057 22.7344 52.2337 24.6038 49.4152 24.6038C45.9293 24.6038 43.8439 21.9117 43.8439 18.681C43.8439 15.4503 45.9293 12.7583 49.4152 12.7583C52.0384 12.7742 54.1075 14.1833 54.3518 16.6219H52.3167V16.6208Z" fill="#DDDDDD"/>
<path d="M55.5758 20.2308C55.5758 17.7285 57.1235 15.9229 59.8274 15.9229C62.5312 15.9229 64.079 17.7285 64.079 20.2308C64.079 22.749 62.5312 24.5547 59.8274 24.5547C57.1235 24.5547 55.5758 22.749 55.5758 20.2308ZM62.2226 20.2308C62.2226 18.8217 61.4897 17.349 59.8274 17.349C58.1651 17.349 57.4321 18.8217 57.4321 20.2308C57.4321 21.6558 58.1651 23.1285 59.8274 23.1285C61.4897 23.1297 62.2226 21.6558 62.2226 20.2308Z" fill="#DDDDDD"/>
<path d="M65.677 13.0249H67.5345V14.7351H65.677V13.0249ZM65.677 16.1454H67.5345V24.3329H65.677V16.1454Z" fill="#DDDDDD"/>
<path d="M69.5544 16.1454H71.3138V17.3488L71.3465 17.3806C71.9006 16.4784 72.8615 15.9238 73.9697 15.9238C75.7945 15.9238 76.9506 16.8738 76.9506 18.7113V24.3329H75.0931V19.1863C75.0603 17.9034 74.539 17.3488 73.4472 17.3488C72.2092 17.3488 71.4108 18.2988 71.4108 19.5022V24.3329H69.5544V16.1454Z" fill="#DDDDDD"/>
<path d="M89.3161 24.333H88.0127L87.7029 23.0023C86.6111 24.2057 85.6174 24.6023 84.2006 24.6023C80.7147 24.6023 78.6293 21.9102 78.6293 18.6796C78.6293 15.4489 80.7147 12.7568 84.2006 12.7568C86.742 12.7568 88.8766 14.0716 89.1863 16.6205H87.1991C87.0039 15.1318 85.6677 14.3716 84.2018 14.3716C81.7095 14.3716 80.6668 16.5091 80.6668 18.6796C80.6668 20.85 81.7095 22.9875 84.2018 22.9875C86.2873 23.0193 87.427 21.8 87.4598 19.883H84.3643V18.3784H89.3173V24.333H89.3161Z" fill="#DDDDDD"/>
<path d="M92.7213 20.7055C92.7213 21.9884 93.4379 23.1282 94.9856 23.1282C96.0611 23.1282 96.7122 22.6691 97.0383 21.7657H98.7976C98.3908 23.5555 96.8267 24.5532 94.9856 24.5532C92.346 24.5532 90.8638 22.7634 90.8638 20.2453C90.8638 17.9168 92.4279 15.9214 94.9365 15.9214C97.5924 15.9214 99.2208 18.2498 98.911 20.7043H92.7213V20.7055ZM97.0547 19.518C96.9892 18.3782 96.1908 17.3487 94.9365 17.3487C93.6495 17.3487 92.7692 18.2987 92.7213 19.518H97.0547Z" fill="#DDDDDD"/>
<path d="M106.015 18.8852C105.869 17.8875 105.118 17.3488 104.093 17.3488C103.132 17.3488 101.78 17.8397 101.78 20.3261C101.78 21.6886 102.399 23.1295 104.011 23.1295C105.087 23.1295 105.836 22.4329 106.015 21.2602H107.872C107.53 23.3829 106.179 24.5545 104.011 24.5545C101.372 24.5545 99.9222 22.7329 99.9222 20.3261C99.9222 17.8556 101.307 15.9238 104.077 15.9238C106.031 15.9238 107.694 16.8738 107.872 18.8852H106.015Z" fill="#DDDDDD"/>
<path d="M109.437 13.0249H111.294V19.4544L114.65 16.1442H116.931L113.706 19.1533L117.241 24.3317H114.976L112.402 20.3567L111.294 21.4022V24.3317H109.437V13.0249Z" fill="#DDDDDD"/>
<path d="M117.746 20.2308C117.746 17.7285 119.293 15.9229 121.998 15.9229C124.702 15.9229 126.25 17.7285 126.25 20.2308C126.25 22.749 124.702 24.5547 121.998 24.5547C119.293 24.5547 117.746 22.749 117.746 20.2308ZM124.393 20.2308C124.393 18.8217 123.66 17.349 121.997 17.349C120.335 17.349 119.602 18.8217 119.602 20.2308C119.602 21.6558 120.335 23.1285 121.997 23.1285C123.66 23.1297 124.393 21.6558 124.393 20.2308Z" fill="#DDDDDD"/>
<path d="M16.6989 3.6945C7.43477 3.73541 -0.0408693 11.0672 4.50751e-05 20.074C0.0421284 29.0797 7.58674 36.3468 16.8497 36.307C26.1139 36.2661 33.5896 28.9331 33.5486 19.9286C33.5066 10.9218 25.9631 3.65473 16.6989 3.6945ZM14.5749 19.2002C12.9185 19.2002 11.5753 17.8956 11.5753 16.2854C11.5753 14.6763 12.9185 13.3706 14.5749 13.3706C16.2302 13.3706 17.5733 14.6763 17.5733 16.2854C17.5745 17.8956 16.2314 19.2002 14.5749 19.2002ZM16.9666 22.3525L16.9818 22.3343L16.9982 22.3161C17.8539 22.8525 18.8312 23.0422 19.8073 23.0695C20.7845 23.0945 21.7805 23.0229 22.7601 22.8309C23.7386 22.6331 24.7006 22.3411 25.63 21.9684C26.1513 21.7593 26.6704 21.5309 27.1648 21.2627C27.1683 21.2604 27.1707 21.2593 27.1742 21.257C27.4816 21.0775 27.7821 20.8877 28.0778 20.6922C28.1421 20.6479 28.2041 20.6013 28.2648 20.5536L28.2719 20.5615L28.2976 20.5911C27.5436 21.2581 26.6458 21.7536 25.7317 22.1911C24.8082 22.6138 23.8449 22.9604 22.8501 23.2104C21.8588 23.4593 20.8243 23.6479 19.7769 23.5547C18.747 23.465 17.661 23.1138 16.9666 22.3525ZM24.6632 19.2002C24.662 18.8502 24.952 18.5684 25.3097 18.565C25.6697 18.5638 25.9596 18.8445 25.9631 19.1934C25.9643 19.5422 25.6744 19.8275 25.3167 19.8286C24.9578 19.8309 24.6656 19.549 24.6632 19.2002ZM19.5255 34.84C18.8779 30.4275 22.8419 26.1059 25.077 23.8945C25.5844 23.3934 26.3688 22.7025 27.0982 21.9684C29.9996 19.3309 30.5771 16.1797 24.6387 14.6047C23.5129 14.2877 22.3463 13.8388 21.1645 13.3854C21.127 13.2797 21.085 13.1797 21.0359 13.0854C20.9003 12.8581 20.663 12.5968 20.3041 12.3002C19.5326 11.649 18.0819 11.6661 16.8299 11.9547C15.4458 11.6377 14.0804 11.5252 12.7677 11.8309C7.02562 13.3684 6.10213 16.0911 5.87885 19.3718C5.57492 22.9172 5.39723 25.5593 4.01667 28.5775C2.29359 26.1615 1.27774 23.2309 1.26371 20.0684C1.22514 11.7411 8.13849 4.96041 16.7048 4.92291C25.2711 4.88541 32.2464 11.6047 32.285 19.932C32.32 27.3695 26.806 33.5752 19.5255 34.84Z" fill="#DDDDDD"/>
<path d="M16.6837 16.3127C16.6837 17.4457 15.7392 18.3627 14.5749 18.3627C13.4094 18.3627 12.4648 17.4457 12.4648 16.3127C12.4648 15.1797 13.4094 14.2627 14.5749 14.2627C15.7392 14.2616 16.6837 15.1797 16.6837 16.3127Z" fill="#DDDDDD"/>
</g>
</g>
<defs>
<clipPath id="clip0_73_3402">
<rect width="126.25" height="40" fill="#DDDDDD"/>
</clipPath>
<clipPath id="clip1_73_3402">
<rect width="126.25" height="32.5" fill="#DDDDDD" transform="translate(0 3.75)"/>
</clipPath>
</defs>
</svg>