<svg width="168" height="40" viewBox="0 0 168 40" fill="none" xmlns="http://www.w3.org/2000/svg">
<g clip-path="url(#clip0_73_3426)">
<g clip-path="url(#clip1_73_3426)">
<path d="M24.8873 22.6286C24.3856 22.9429 23.8003 23 23.3544 22.7429C22.797 22.4 22.4626 21.6286 22.4626 20.5714V17.3429C22.4626 15.8 21.8773 14.6857 20.874 14.4C19.1739 13.8857 17.8918 16.0286 17.4181 16.8286L14.4081 21.7714V15.6857C14.3802 14.2857 13.9343 13.4571 13.0982 13.2C12.5408 13.0286 11.7047 13.1143 10.8964 14.3714L4.1797 25.4C3.28785 23.6571 2.81406 21.7143 2.81406 19.7429C2.81406 13.0857 8.02579 7.68571 14.4081 7.68571C20.7903 7.68571 26.0021 13.0857 26.0021 19.7429V19.7714V19.8C26.0578 21.0857 25.6676 22.1143 24.8873 22.6286ZM28.5661 19.7429V19.7143V19.6857C28.5383 11.6 22.1839 5 14.4081 5C6.60441 5 0.25 11.6 0.25 19.7429C0.25 27.8571 6.60441 34.4857 14.4081 34.4857C18.0033 34.4857 21.4035 33.0857 24.0233 30.5429C24.5528 30.0286 24.5807 29.2 24.079 28.6571C23.6052 28.1143 22.797 28.0857 22.2675 28.5714C22.2675 28.5714 22.2675 28.5714 22.2396 28.6C20.1215 30.6571 17.2787 31.8286 14.3523 31.8286C10.9243 31.8286 7.85857 30.2857 5.74043 27.8286L11.7883 17.8857V22.4857C11.7883 24.6857 12.6244 25.4 13.3211 25.6C14.0179 25.8 15.077 25.6571 16.2196 23.8L19.5362 18.2857C19.6477 18.1143 19.7313 17.9429 19.8428 17.8286V20.6286C19.8428 22.6857 20.651 24.3429 22.0445 25.1429C23.2987 25.8857 24.8873 25.8 26.1972 24.9714C27.8136 23.8857 28.6776 22 28.5661 19.7429ZM48.2983 14.7143C48.6327 14.9143 48.9393 15.4 48.9393 15.8286C48.9393 16.5143 48.3819 17.0857 47.7408 17.0857C47.5736 17.0857 47.4343 17.0286 47.2949 17C46.5424 16.4286 45.5948 16.0571 44.5915 16.0571C42.2225 16.0571 40.6061 18.0286 40.6061 20.4857C40.6061 22.9429 42.2504 24.8857 44.5915 24.8857C45.7621 24.8857 46.8211 24.4 47.6015 23.6286C47.7966 23.4857 48.0474 23.4 48.2983 23.4C48.9393 23.4 49.4409 23.9143 49.4409 24.5714C49.4409 25 49.1901 25.3714 48.8835 25.5714C47.7408 26.5714 46.208 27.2286 44.6194 27.2286C40.9963 27.2286 38.042 24.1714 38.042 20.4C38.042 16.6286 40.9963 13.5714 44.6194 13.5714C45.9572 13.5429 47.2392 13.9714 48.2983 14.7143ZM54.9314 17.5714C57.4118 17.5714 59.4742 19.7143 59.4742 22.3714C59.4742 25 57.3839 27.2571 54.9314 27.2571C52.3394 27.2571 50.1934 25.0286 50.1934 22.3714C50.1934 19.7143 52.3394 17.5714 54.9314 17.5714ZM54.9035 24.8857C55.9904 24.8857 56.9101 23.8286 56.9101 22.4C56.9101 20.9714 55.9904 20.0571 54.9035 20.0571C53.7329 20.0571 52.7575 20.9429 52.7575 22.4C52.7575 23.8 53.7329 24.8857 54.9035 24.8857ZM61.0349 25.7714V19.0286C61.0349 18.2857 61.5923 17.6857 62.317 17.6857C63.0137 17.6857 63.599 18.2857 63.599 19.0286V25.7714C63.599 26.5143 63.0137 27.1143 62.317 27.1143C61.6202 27.1143 61.0349 26.4857 61.0349 25.7714ZM60.8398 15.1429C60.8398 14.2571 61.5087 13.5714 62.317 13.5714C63.1531 13.5714 63.822 14.2857 63.822 15.1429C63.822 16 63.1531 16.6857 62.317 16.6857C61.4809 16.6571 60.8398 15.9714 60.8398 15.1429ZM68.5042 22.1143V25.7714C68.5042 26.5143 67.9189 27.1143 67.2221 27.1143C66.5254 27.1143 65.9401 26.5143 65.9401 25.7714V18.7143C65.9401 18.1429 66.386 17.6857 66.9434 17.6857C67.5008 17.6857 67.9189 18.1714 67.9189 18.7143C68.9501 17.7143 69.8698 17.5714 70.7338 17.5714C73.2978 17.5714 74.4405 19.5429 74.4405 21.8V25.7714C74.4405 26.5143 73.8552 27.1143 73.1585 27.1143C72.4617 27.1143 71.8764 26.5143 71.8764 25.7714V22.1143C71.8764 20.9714 71.7371 20 70.1206 20C68.9779 20 68.5042 20.9714 68.5042 22.1143ZM82.7458 23.5143C82.4393 23.5143 82.2442 23.3714 82.0769 23.1714L79.0948 19.8571V25.7714C79.0948 26.5143 78.5096 27.1143 77.8128 27.1143C77.116 27.1143 76.5308 26.5143 76.5308 25.7714V14.0571C76.6144 13.8571 76.8095 13.7143 77.0046 13.7143C77.2275 13.7143 77.4226 13.9143 77.562 14.0571L82.3278 19.5429C82.4671 19.7143 82.6344 19.8 82.7458 19.8C82.8294 19.8 83.0245 19.7143 83.1639 19.5429L87.9297 14.0571C88.069 13.9143 88.2363 13.7143 88.4871 13.7143C88.7101 13.7143 88.9051 13.8571 88.9609 14.0571V25.7714C88.9609 26.5143 88.4035 27.1143 87.6789 27.1143C86.9821 27.1143 86.3968 26.5143 86.3968 25.7714V19.8571L83.4147 23.1714C83.1918 23.3714 82.9967 23.5143 82.7458 23.5143ZM95.0645 24.8857C96.2071 24.8857 97.1826 23.8286 97.1826 22.4C97.1826 20.9714 96.1793 20.0286 95.0645 20.0286C93.9497 20.0286 93.0299 21 93.0299 22.4C93.0299 23.7714 93.9218 24.8857 95.0645 24.8857ZM97.7957 26.0857L97.74 25.7714C97.2383 26.7714 95.6497 27.2286 94.6464 27.2286C92.2496 27.2286 90.4659 25 90.4659 22.3429C90.4659 19.7143 92.2774 17.5429 94.7858 17.5429C95.2038 17.5429 96.6531 17.6571 97.7679 19L97.8236 18.6857C97.8236 18.1143 98.2417 17.6571 98.7991 17.6571C99.3565 17.6571 99.8024 18.1429 99.8024 18.6857V26.0571C99.8024 26.6286 99.3565 27.0857 98.7991 27.0857C98.2138 27.1143 97.7957 26.6286 97.7957 26.0857ZM106.854 20H106.575C104.958 20.0857 104.652 21.0286 104.652 22.1143V25.7714C104.652 26.5143 104.067 27.1143 103.37 27.1143C102.673 27.1143 102.088 26.5143 102.088 25.7714V18.7143C102.088 18.1429 102.534 17.6857 103.091 17.6857C103.648 17.6857 104.067 18.1714 104.067 18.7143C105.014 17.8 105.795 17.6 106.575 17.5714H106.826C107.439 17.5714 107.996 18.1143 107.996 18.8C108.024 19.4286 107.467 20 106.854 20ZM116.747 25.1429C116.859 25.3429 116.943 25.5429 116.943 25.7714C116.943 26.4571 116.329 27.0857 115.661 27.0857C115.215 27.0857 114.824 26.7429 114.518 26.3429L111.564 22.8286V25.7429C111.564 26.4857 110.978 27.0857 110.282 27.0857C109.585 27.0857 109 26.4857 109 25.7429V15.0286C109 14.2857 109.557 13.6857 110.282 13.6857C111.006 13.6857 111.564 14.2857 111.564 15.0286V21.7143L114.518 18.3714C114.824 18.0286 115.187 17.6571 115.633 17.6571C116.274 17.6571 116.859 18.2571 116.859 18.9429C116.859 19.1429 116.803 19.3714 116.692 19.5429L114.351 22.1714L116.747 25.1429ZM121.764 20.0286C121.067 20.0286 119.925 20.4 119.925 21.5143H123.631C123.604 20.4 122.433 20.0286 121.764 20.0286ZM125.109 23.2H119.925C119.925 24.7714 121.402 25.0286 122.043 25.0286C122.517 25.0286 123.186 24.9429 123.715 24.6857C123.882 24.5714 124.133 24.4857 124.384 24.4857C124.941 24.4857 125.415 24.9714 125.415 25.5714C125.415 25.9714 125.164 26.3143 124.858 26.5143C124.077 27.1143 123.046 27.2571 122.071 27.2571C119.479 27.2571 117.333 25.8286 117.333 22.4857C117.333 19.8571 118.643 17.5714 121.708 17.5714C124.189 17.5714 126.056 19.2286 126.112 22.1714C126.112 22.7143 125.666 23.2 125.109 23.2ZM132.243 27.2286H131.547C129.596 27.2286 128.453 26.3429 128.453 23.2286V20H127.784C127.171 20 126.641 19.4286 126.641 18.8C126.641 18.1143 127.199 17.5714 127.784 17.5714H128.453V15.0857C128.453 14.3429 129.01 13.7429 129.735 13.7429C130.432 13.7429 131.017 14.3429 131.017 15.0857V17.5714H132.076C132.689 17.5714 133.219 18.1143 133.219 18.8C133.219 19.4286 132.661 20 132.076 20H131.017V22.7143C131.017 24.5143 131.101 24.8857 131.881 24.8857H132.243C132.856 24.8857 133.386 25.4 133.386 26.0571C133.386 26.6857 132.856 27.2286 132.243 27.2286ZM144.646 14.7143C144.98 14.9143 145.287 15.4 145.287 15.8286C145.287 16.5143 144.729 17.0857 144.088 17.0857C143.921 17.0857 143.782 17.0286 143.642 17C142.89 16.4286 141.942 16.0571 140.939 16.0571C138.57 16.0571 136.953 18.0286 136.953 20.4857C136.953 22.9429 138.598 24.8857 140.939 24.8857C142.109 24.8857 143.168 24.4 143.949 23.6286C144.144 23.4857 144.395 23.4 144.646 23.4C145.287 23.4 145.788 23.9143 145.788 24.5714C145.788 25 145.537 25.3714 145.231 25.5714C144.088 26.5714 142.555 27.2286 140.967 27.2286C137.344 27.2286 134.389 24.1714 134.389 20.4C134.389 16.6286 137.344 13.5714 140.967 13.5714C142.304 13.5429 143.614 13.9714 144.646 14.7143ZM151.139 24.8857C152.282 24.8857 153.257 23.8286 153.257 22.4C153.257 20.9714 152.254 20.0286 151.139 20.0286C149.997 20.0286 149.105 21 149.105 22.4C149.105 23.7714 150.025 24.8857 151.139 24.8857ZM153.871 26.0857L153.815 25.7714C153.313 26.7714 151.725 27.2286 150.721 27.2286C148.324 27.2286 146.541 25 146.541 22.3429C146.541 19.7143 148.352 17.5429 150.861 17.5429C151.279 17.5429 152.728 17.6571 153.843 19L153.898 18.6857C153.898 18.1143 154.317 17.6571 154.874 17.6571C155.431 17.6571 155.877 18.1429 155.877 18.6857V26.0571C155.877 26.6286 155.431 27.0857 154.874 27.0857C154.289 27.1143 153.871 26.6286 153.871 26.0857ZM162.873 24.8857C164.015 24.8857 164.907 23.7714 164.907 22.4C164.907 20.9714 163.988 20.0286 162.873 20.0286C161.73 20.0286 160.755 20.9714 160.755 22.4C160.755 23.8286 161.73 24.8857 162.873 24.8857ZM160.755 26.4571V29.8C160.755 30.5429 160.169 31.1429 159.473 31.1429C158.776 31.1429 158.191 30.5429 158.191 29.8V18.7143C158.191 18.1429 158.636 17.6857 159.194 17.6857C159.751 17.6857 160.169 18.1714 160.169 18.8286C161.117 17.8286 162.287 17.5714 163.179 17.5714C165.66 17.5714 167.499 19.7143 167.499 22.3714C167.499 25 165.743 27.2571 163.319 27.2571C162.566 27.2286 161.451 27 160.755 26.4571Z" fill="#DDDDDD"/>
</g>
</g>
<defs>
<clipPath id="clip0_73_3426">
<rect width="167.5" height="40" fill="#DDDDDD" transform="translate(0.25)"/>
</clipPath>
<clipPath id="clip1_73_3426">
<rect width="167.5" height="30" fill="#DDDDDD" transform="translate(0.25 5)"/>
</clipPath>
</defs>
</svg>
