<svg width="102" height="40" viewBox="0 0 102 40" fill="none" xmlns="http://www.w3.org/2000/svg">
<g clip-path="url(#clip0_73_3433)">
<g clip-path="url(#clip1_73_3433)">
<path d="M75.8165 16.7887C73.826 17.0405 72.361 18.1791 71.821 19.879C71.452 21.0385 71.4935 22.1351 71.961 23.2526C72.5116 24.5747 73.6966 25.5139 75.2705 25.8707C75.7227 25.9756 76.9019 25.9861 77.3699 25.8917C79.1934 25.5296 80.4715 24.3859 80.9964 22.6492C81.1212 22.2347 81.1363 22.1088 81.1363 21.3743C81.1363 20.6397 81.1212 20.5139 80.9964 20.0993C80.4768 18.3889 79.2455 17.2609 77.4841 16.8831C77.1257 16.8097 76.1281 16.752 75.8165 16.7887ZM76.9335 19.0395C77.5931 19.2127 78.2117 19.6481 78.5022 20.1518C78.9438 20.9126 78.9286 21.9147 78.4711 22.644C77.6452 23.9557 75.7591 24.1707 74.6262 23.0795C73.6808 22.1718 73.6497 20.7342 74.5483 19.7531C75.1411 19.1025 76.0918 18.8244 76.9335 19.0395Z" fill="#DDDDDD"/>
<path d="M85.5319 16.7887C83.5421 17.0405 82.0771 18.1791 81.5364 19.879C81.168 21.0385 81.2096 22.1351 81.677 23.2526C82.2276 24.5747 83.4127 25.5139 84.9866 25.8707C85.4388 25.9756 86.6179 25.9861 87.086 25.8917C88.9094 25.5296 90.1876 24.3859 90.7124 22.6492C90.8372 22.2347 90.8524 22.1088 90.8524 21.3743C90.8524 20.6397 90.8372 20.5139 90.7124 20.0993C90.1929 18.3889 88.9616 17.2609 87.2002 16.8831C86.8417 16.8097 85.8442 16.752 85.5319 16.7887ZM86.6489 19.0395C87.3091 19.2127 87.9277 19.6481 88.2182 20.1518C88.6599 20.9126 88.6447 21.9147 88.1872 22.644C87.3613 23.9557 85.4751 24.1707 84.3422 23.0795C83.3968 22.1718 83.3658 20.7342 84.2643 19.7531C84.8565 19.1025 85.8078 18.8244 86.6489 19.0395Z" fill="#DDDDDD"/>
<path d="M98.6203 16.8149C97.4617 16.9829 96.5942 17.7331 96.3136 18.8087C96.0429 19.8213 96.2357 20.8601 96.7757 21.3638C97.0979 21.6629 97.4775 21.8413 98.5265 22.1823C99.5452 22.5128 99.7737 22.6545 99.8773 23.0007C99.9968 23.3995 99.701 23.8717 99.2594 23.9976C99.0151 24.0658 98.5629 24.0658 98.2618 23.9923C97.9291 23.9137 97.3369 23.6199 97.082 23.3995C96.9678 23.2945 96.8431 23.2106 96.8173 23.2106C96.7916 23.2106 96.6668 23.4047 96.542 23.6409C96.3704 23.9766 96.3136 24.0501 96.2977 23.9557L96.2819 23.8402H94.9311H93.5857V20.4037V16.9671H92.4686H91.3516V21.3743V25.7815H93.8194H96.2872V25.5454C96.2872 25.4142 96.2977 25.3093 96.3083 25.3093C96.3189 25.3093 96.5209 25.4037 96.7599 25.5139C97.4927 25.8601 97.9555 25.9599 98.8593 25.9599C99.7426 25.9599 100.158 25.8811 100.704 25.6136C101.135 25.4037 101.722 24.8213 101.919 24.4121C102.309 23.5936 102.361 22.4971 102.039 21.7993C101.982 21.6681 101.79 21.4163 101.613 21.2379C101.233 20.8496 100.823 20.645 99.7684 20.304C99.3531 20.1728 98.9372 20.0154 98.8434 19.9577C98.5061 19.7478 98.4381 19.2861 98.7035 18.9975C99.1656 18.4991 99.9816 18.5463 100.839 19.1182L101.005 19.2284L101.457 18.3522C101.701 17.8748 101.899 17.476 101.888 17.4655C101.836 17.4131 101.202 17.1613 100.844 17.0458C100.075 16.7992 99.2752 16.7153 98.6203 16.8149Z" fill="#DDDDDD"/>
<path d="M35.8345 20.1265V25.9332H37.8679C38.9836 25.9332 40.1521 25.8998 40.4558 25.8665C42.9646 25.5532 44.8197 24.0198 45.4139 21.7598C45.6119 21.0132 45.6582 19.6932 45.5129 18.9132C45.229 17.3932 44.4434 16.1665 43.2419 15.3398C42.7005 14.9665 42.2186 14.7598 41.4461 14.5465C40.8387 14.3798 40.7463 14.3798 38.33 14.3465L35.8345 14.3198V20.1265ZM40.271 16.6932C41.8488 17.0332 42.8986 18.3665 42.8986 20.0332C42.8919 21.1398 42.5552 22.0932 41.9281 22.7198C41.3075 23.3532 40.3766 23.6598 39.0892 23.6665H38.4752V20.1332V16.5998H39.1552C39.525 16.5998 40.0267 16.6465 40.271 16.6932Z" fill="#DDDDDD"/>
<path d="M46.4636 20.1335V25.9335L51.3028 25.9268H56.1355L57.3832 24.1602C58.0764 23.1935 58.6508 22.4002 58.6706 22.4002C58.697 22.4002 59.278 23.1935 59.9646 24.1668L61.219 25.9335H62.7902C63.6485 25.9335 64.3549 25.9135 64.3549 25.8935C64.3549 25.8735 63.4306 24.5668 62.3083 22.9935L60.2617 20.1335L62.2159 17.3802C63.292 15.8735 64.2294 14.5735 64.2955 14.5002C64.4209 14.3735 64.4209 14.3935 64.4209 15.5535V16.7335H65.6093H66.7976V21.3335V25.9335H68.217H69.6364V21.3335V16.7335L71.0228 16.7202L72.4027 16.7002L71.6632 15.5202L70.9238 14.3402L66.0714 14.3335H61.2124L59.9646 16.1002C59.2714 17.0668 58.697 17.8602 58.6772 17.8668C58.6574 17.8668 58.0764 17.0735 57.3898 16.1002L56.1355 14.3335H51.3028H46.4636V20.1335ZM55.0065 17.2268C56.1157 18.7802 57.0267 20.0868 57.0267 20.1268C57.0267 20.1668 56.1157 21.4802 54.9999 23.0468L52.9665 25.8935L52.9467 24.7802L52.9335 23.6668H51.019H49.1044V22.3668V21.0668H50.6559H52.2073V19.9668V18.8668H50.6559H49.1044V17.7335V16.6002H51.019H52.9335V15.5002C52.9335 14.8935 52.9467 14.4002 52.9599 14.4002C52.9797 14.4002 53.8974 15.6735 55.0065 17.2268Z" fill="#DDDDDD"/>
<g clip-path="url(#clip2_73_3433)">
<path fill-rule="evenodd" clip-rule="evenodd" d="M10.4527 5.826C8.57336 6.81794 7.0358 7.65731 7.03612 7.69145C7.03696 7.77957 11.5466 10.0936 11.7067 10.088C11.7795 10.0855 12.3077 9.83916 12.8804 9.5406L13.9218 8.99787L15.0592 9.59023L16.1965 10.1827L18.0591 9.33469C20.8656 8.05689 21.1571 7.91686 21.1114 7.86982C21.0508 7.8074 20.0441 7.25947 17.313 5.80263C15.9931 5.09852 14.7121 4.40817 14.4661 4.26848C14.2202 4.12878 13.9854 4.01641 13.9444 4.01859C13.9034 4.02076 12.3321 4.83411 10.4527 5.826V5.826ZM2.20991 10.1508L0.25353 11.1747V15.6684C0.25353 18.14 0.279219 20.1621 0.31073 20.1621C0.342132 20.1621 1.30467 19.7393 2.44966 19.2226L4.53147 18.2832V13.5465L5.54877 14.1081C6.33269 14.5404 7.11709 14.9719 7.90195 15.4025L9.23779 16.1353L9.8322 15.863C10.205 15.6919 10.577 15.5191 10.9483 15.3447C11.2352 15.2094 11.9396 14.8879 12.5134 14.6303C13.0873 14.3726 13.6185 14.1135 13.6938 14.0544C13.7939 13.976 12.5737 13.2928 9.18091 11.5275C6.62346 10.1968 4.44894 9.11231 4.34866 9.11751C4.24838 9.1227 3.28594 9.58765 2.20991 10.1508V10.1508ZM21.464 10.4384C20.1316 11.0478 19.0405 11.5709 19.0392 11.6007C19.0381 11.6305 19.7643 12.068 20.6531 12.5728C21.5419 13.0777 22.2691 13.5178 22.2691 13.5509C22.2691 13.584 21.4826 13.9701 20.5215 14.4091C19.5602 14.848 17.1304 15.9598 15.1219 16.8798L8.39201 19.962C6.69911 20.7375 5.17315 21.4364 5.001 21.5154C1.54315 23.1014 0.592728 23.5415 0.462208 23.617C0.330961 23.6931 0.301233 24.135 0.277872 26.3527L0.25 28.9977L1.99948 29.9009L3.74893 30.8041L6.17481 29.6948C7.50908 29.0847 8.60069 28.5536 8.60069 28.5145C8.60069 28.4755 8.35413 28.3127 8.05292 28.1526C7.75156 27.9926 7.12949 27.6382 6.6704 27.365C6.21134 27.0918 5.75359 26.8411 5.65309 26.8078C5.55263 26.7747 5.47189 26.7167 5.47352 26.6789C5.4752 26.6412 6.54344 26.127 7.84726 25.5363C10.3797 24.3891 12.3177 23.5049 16.4783 21.5985C18.3388 20.7462 20.1995 19.8944 22.0605 19.0431C23.696 18.2952 25.5976 17.4216 26.2862 17.1019L27.5383 16.5206L27.5661 13.8454L27.5941 11.1703L25.8197 10.2475C24.8437 9.74002 24.0095 9.32603 23.9658 9.32754C23.9221 9.32894 22.7963 9.82876 21.464 10.4384V10.4384ZM27.0629 20.0894C26.8014 20.2188 26.2849 20.4611 25.9152 20.6278C25.5454 20.7945 24.8437 21.1152 24.3559 21.3408L23.469 21.7506L23.4488 24.0992C23.4376 25.3909 23.3907 26.442 23.3445 26.4351C23.2395 26.4193 21.5773 25.5556 19.9064 24.6484C18.7004 23.9937 18.6247 23.9677 18.3413 24.1099C18.1775 24.1922 17.1983 24.6371 16.1653 25.0989C15.1323 25.5606 14.2535 25.9685 14.2122 26.0054C14.1709 26.0423 16.2499 27.184 18.8322 28.5427L23.5272 31.0129L25.5328 29.9617C26.6358 29.3836 27.5737 28.8563 27.6169 28.79C27.7141 28.6408 27.7057 19.8336 27.6084 19.8455C27.5699 19.8502 27.3244 19.96 27.0629 20.0894V20.0894ZM15.9566 30.4268C15.6087 30.5784 15.2609 30.7301 14.9132 30.8821C13.8633 31.3424 14.069 31.3577 12.8199 30.7276C11.9879 30.3079 11.6292 30.1785 11.4736 30.2413C11.3568 30.2884 10.3519 30.7465 9.2403 31.2593C8.12875 31.772 7.18073 32.1915 7.13357 32.1915C6.6672 32.1915 7.44253 32.6608 10.4344 34.19L13.9431 35.9831L15.4194 35.2446C16.2314 34.8385 17.8691 34.0251 19.0588 33.4372C20.2485 32.8492 21.2072 32.3528 21.1893 32.3341C21.1712 32.3154 20.1743 31.7968 18.9739 31.1815L16.7913 30.063L15.9566 30.4268Z" fill="#DDDDDD"/>
</g>
</g>
</g>
<defs>
<clipPath id="clip0_73_3433">
<rect width="102" height="40" fill="#DDDDDD"/>
</clipPath>
<clipPath id="clip1_73_3433">
<rect width="102" height="32" fill="#DDDDDD" transform="translate(0.25 4)"/>
</clipPath>
<clipPath id="clip2_73_3433">
<rect width="27.4641" height="32" fill="#DDDDDD" transform="translate(0.25 4)"/>
</clipPath>
</defs>
</svg>