<svg width="125" height="40" viewBox="0 0 125 40" fill="none" xmlns="http://www.w3.org/2000/svg">
<g clip-path="url(#clip0_73_3445)">
<path fill-rule="evenodd" clip-rule="evenodd" d="M0.730483 4.62074C3.82787 8.49744 7.22873 13.3678 7.7788 14.1555C7.80813 14.1975 7.82935 14.2279 7.842 14.2459C8.13522 14.6639 8.37729 14.9746 8.56112 15.2105C8.96922 15.7343 9.09033 15.8897 8.84683 16.0325C8.6504 16.1476 8.44778 16.1856 8.24559 16.1856C8.0169 16.1856 7.75926 16.072 7.57165 15.8885C7.43905 15.7588 6.53171 14.3999 5.29617 12.4229C4.35083 10.9102 3.55968 9.6554 3.5381 9.63439C3.4882 9.5858 3.48905 9.58745 5.19979 12.744C6.27398 14.726 7.00877 16.1908 7.00877 16.2845C7.00877 16.4751 6.95833 16.5753 6.73031 16.8375C6.3502 17.2749 6.18027 17.7663 6.05761 18.7831C5.9201 19.923 5.53343 20.7283 4.46184 22.1064C3.83456 22.9132 3.73193 23.061 3.57365 23.3862C3.37429 23.7957 3.31946 24.025 3.29724 24.542C3.27376 25.0888 3.3195 25.4419 3.48146 25.9645C3.62326 26.4221 3.77126 26.7244 4.14963 27.3287C4.47616 27.8502 4.66417 28.2377 4.66417 28.3894C4.66417 28.51 4.68651 28.5102 5.19249 28.3924C6.40338 28.1103 7.38661 27.6145 7.9396 27.0067C8.28184 26.6305 8.36219 26.4228 8.36479 25.9073C8.36651 25.5701 8.355 25.4996 8.26662 25.3056C8.12274 24.9897 7.86082 24.7273 7.28353 24.3204C6.52712 23.7871 6.20405 23.3578 6.11481 22.7675C6.04161 22.2831 6.12654 21.9413 6.54498 21.0369C6.97809 20.1008 7.08543 19.7019 7.15804 18.7582C7.20492 18.1486 7.26987 17.9082 7.43972 17.7152C7.61687 17.514 7.77634 17.4458 8.21474 17.384C8.92947 17.2833 9.38457 17.0926 9.75867 16.7372C10.0832 16.4288 10.219 16.1316 10.2398 15.6843L10.2556 15.3453L10.0743 15.1272C9.41755 14.3376 0.290666 4 0.25025 4C0.241616 4 0.457729 4.27935 0.730483 4.62074ZM5.03284 25.1607C5.18133 24.8894 5.10244 24.5409 4.85405 24.3705C4.61937 24.2096 4.25481 24.2854 4.25481 24.4951C4.25481 24.5591 4.28911 24.6056 4.36646 24.6467C4.49667 24.7159 4.50613 24.7935 4.40367 24.9523C4.29991 25.1132 4.30828 25.2545 4.4273 25.3505C4.61911 25.5055 4.89063 25.4203 5.03284 25.1607ZM9.50222 10.3726C9.20922 10.3257 9.19687 10.3202 9.33474 10.2984C9.59898 10.2565 10.2229 10.3136 10.6528 10.419C11.6566 10.665 12.5699 11.2953 13.5449 12.4147L13.8038 12.7121L14.1744 12.6507C15.7354 12.392 17.3234 12.5976 18.6516 13.2303C19.017 13.4044 19.5931 13.7509 19.665 13.8399C19.6879 13.8683 19.7301 14.051 19.7586 14.2459C19.8572 14.9203 19.8079 15.4372 19.6078 15.8233C19.4991 16.0334 19.493 16.1 19.5661 16.2798C19.6245 16.4232 19.7874 16.5294 19.9487 16.5292C20.2787 16.5287 20.6339 15.9785 20.7986 15.2129L20.864 14.9088L20.9935 15.0601C21.7039 15.8903 22.2621 17.0223 22.3579 17.8281L22.3828 18.0382L22.2635 17.8472C22.0579 17.5186 21.8514 17.2948 21.5869 17.1144C21.1103 16.7891 20.6062 16.6784 19.2713 16.6059C18.0657 16.5404 17.3834 16.4342 16.7069 16.2066C15.5556 15.8196 14.9754 15.3042 13.6079 13.4541C13.0006 12.6323 12.6252 12.1777 12.2518 11.8116C11.4032 10.9796 10.5695 10.5433 9.50222 10.3726ZM19.9369 12.2073C19.9673 11.6567 20.0398 11.2935 20.1853 10.9618C20.2429 10.8305 20.2969 10.7231 20.3052 10.7231C20.3136 10.7231 20.2885 10.82 20.2495 10.9384C20.1437 11.2603 20.1263 11.7006 20.1993 12.2128C20.2918 12.8628 20.3445 12.9566 21.0106 13.6587C21.323 13.988 21.6865 14.4033 21.8183 14.5817L22.0579 14.9059L21.8183 14.6742C21.5253 14.3908 20.8516 13.8382 20.7028 13.7592C20.6029 13.7062 20.5881 13.7071 20.5266 13.7703C20.4699 13.8285 20.4579 13.916 20.45 14.3295C20.4377 14.9741 20.3526 15.3878 20.147 15.8014C20.0358 16.0252 20.0182 15.9774 20.1188 15.7249C20.194 15.5363 20.2016 15.4534 20.2011 14.8295C20.1999 13.5758 20.0555 13.2744 19.2091 12.7581C18.9948 12.6273 18.6414 12.4387 18.424 12.3389C18.2068 12.2392 18.0341 12.1523 18.0403 12.1458C18.0643 12.1212 18.8898 12.3696 19.222 12.5014C19.7162 12.6974 19.7977 12.7228 19.8578 12.6992C19.8979 12.6833 19.9174 12.5625 19.9369 12.2073ZM9.18819 11.2449C9.10852 12.2128 9.47654 13.5075 10.0714 14.352C10.5325 15.0066 11.2472 15.5153 11.7749 15.5645C12.1204 15.5966 12.2243 15.4851 12.0679 15.2497C11.8509 14.9228 11.584 14.4196 11.5134 14.2042C11.4695 14.0703 11.3742 13.675 11.3015 13.3256C11.0534 12.1328 10.8095 11.6683 10.2462 11.3155C10.0409 11.1869 9.60248 11.0187 9.34823 10.9708L9.21283 10.9453L9.18819 11.2449ZM19.2155 20.637C16.4357 19.4828 15.4567 18.481 15.4567 16.7906C15.4567 16.5419 15.4651 16.3384 15.4751 16.3384C15.4853 16.3384 15.5928 16.4205 15.7141 16.5208C16.2778 16.987 16.909 17.1862 18.6565 17.449C19.6847 17.6038 20.2633 17.7287 20.7972 17.9113C22.4938 18.4915 23.5435 19.669 23.7939 21.273C23.8666 21.739 23.824 22.6129 23.706 23.0735C23.6129 23.4374 23.3287 24.093 23.2534 24.1182C23.2325 24.1252 23.212 24.0426 23.2067 23.9303C23.1781 23.328 22.883 22.7417 22.3874 22.3025C21.8238 21.8031 21.0666 21.4056 19.2155 20.637ZM17.1298 20.51C17.1688 20.6298 17.2292 20.9027 17.264 21.1164C17.4866 22.4829 16.7911 23.5869 15.4381 24.0147C15.2948 24.0599 14.7306 24.1739 14.1842 24.2676C13.0782 24.4575 12.5846 24.592 12.0887 24.8384C11.737 25.0131 11.3112 25.2747 11.3365 25.3007C11.3447 25.3091 11.425 25.2894 11.5149 25.2568C12.1403 25.0304 12.8362 24.9131 13.8936 24.8564C14.3133 24.834 14.7905 24.7981 14.9543 24.7769C15.8963 24.6545 16.5493 24.3594 17.057 23.8265C17.3395 23.5299 17.508 23.2537 17.6437 22.8641C17.7297 22.617 17.7414 22.5252 17.742 22.0874C17.7428 21.6413 17.7323 21.5597 17.6391 21.2852C17.517 20.9255 17.373 20.6555 17.1906 20.4444L17.0588 20.292L17.1298 20.51ZM18.5383 23.4502C18.1689 22.6314 18.0842 21.8409 18.2864 21.1038C18.3081 21.0249 18.3429 20.9604 18.3639 20.9604C18.3849 20.9604 18.4719 21.0091 18.5576 21.0684C18.7277 21.1866 19.0691 21.3856 19.9784 21.8968C21.1133 22.5348 21.7603 23.0288 22.2002 23.5934C22.5855 24.0876 22.8239 24.6506 22.9386 25.3371C23.0037 25.726 22.9656 26.6617 22.8689 27.0533C22.5638 28.288 21.8547 29.2577 20.8433 29.8237C20.6951 29.9066 20.5621 29.9746 20.5476 29.975C20.5333 29.9753 20.5873 29.8338 20.6676 29.6603C21.0079 28.9269 21.0466 28.2135 20.7894 27.4195C20.6319 26.9333 20.3107 26.34 19.6623 25.3372C18.9085 24.1715 18.7237 23.8612 18.5383 23.4502ZM11.5815 26.1356C10.4123 26.3314 9.12884 26.9694 8.09728 27.8676L7.79018 28.135L8.06007 28.1785C9.46851 28.4052 9.84776 28.6063 10.8247 29.6441C11.3869 30.2412 11.5768 30.3742 12.0431 30.4969C12.728 30.6772 13.4032 30.3459 13.6348 29.7159C13.7382 29.4343 13.7244 28.9682 13.6057 28.7341C13.3233 28.1767 12.5007 27.9965 12.1029 28.4048C11.7716 28.7449 11.8681 29.2572 12.2802 29.3453C12.3746 29.3656 12.3719 29.3613 12.2562 29.3073C12.0758 29.2232 11.9975 29.1066 11.9965 28.9211C11.9942 28.486 12.4769 28.2418 12.9261 28.4507C13.2549 28.6038 13.3855 28.8037 13.3855 29.1542C13.3855 29.694 12.94 30.1007 12.4216 30.0342C12.1445 29.9986 11.8056 29.8158 11.6239 29.604C11.1666 29.0709 11.3448 28.2295 11.9832 27.9067C12.4692 27.6611 13.1152 27.7216 13.6162 28.0598C14.1917 28.4486 14.4365 28.8038 14.9322 29.9698C15.0937 30.3495 15.3014 30.7769 15.3938 30.9196C15.8634 31.6445 16.4261 32 17.1038 32C17.4776 32 17.7588 31.9296 18.1126 31.7475C18.3754 31.612 18.7481 31.3548 18.7212 31.3272C18.7136 31.3194 18.6046 31.3544 18.4789 31.4049C17.7389 31.7025 16.9866 31.6821 16.5498 31.3523C16.2747 31.1447 16.0528 30.7311 15.9387 30.2139C15.919 30.1244 15.8539 29.7291 15.7939 29.3353C15.642 28.3373 15.4962 27.8887 15.1561 27.3738C14.8081 26.8471 14.1392 26.4051 13.3913 26.2077C12.9247 26.0845 12.0853 26.051 11.5815 26.1356ZM9.94403 18.4194C10.045 18.0349 10.3712 17.6681 10.7067 17.5619C10.9201 17.4943 11.3611 17.5375 11.5684 17.6461C11.9703 17.8569 12.262 18.3367 12.1987 18.6832C12.1215 19.1055 11.4572 19.4435 10.6931 19.4491C10.3028 19.4518 10.1587 19.3978 10.0097 19.1926C9.9174 19.0655 9.88245 18.654 9.94403 18.4194ZM11.4658 17.7967C11.6662 17.9229 11.7178 18.1095 11.6 18.2821C11.5188 18.4011 11.2675 18.5141 11.0839 18.5141C10.808 18.5141 10.507 18.3121 10.507 18.1271C10.507 17.7553 11.0842 17.5563 11.4658 17.7967ZM71.3604 18.8612C70.7371 16.7443 71.7651 14.9885 73.9586 14.4242C74.5876 14.2623 77.4362 14.3354 77.9242 14.526C78.1034 14.5958 78.1815 14.8639 78.1831 15.4149C78.1843 15.8488 78.2307 16.3758 78.2859 16.586C78.3699 16.9045 78.3208 16.9672 77.9916 16.9621C77.6937 16.9574 77.5137 16.7792 77.2622 16.2401C76.8606 15.3791 76.3743 15.1052 75.2411 15.102C73.7944 15.0977 72.7359 16.0921 72.9082 17.2936C73.0205 18.0755 73.7856 18.8448 75.5028 19.9024C77.1366 20.9085 78.0903 21.7358 78.4701 22.4771C79.4862 24.4588 78.6185 26.5796 76.3549 27.6481C75.1929 28.1966 73.2455 28.2533 71.8763 27.7786L70.9995 27.4745V26.0442C70.9995 24.7488 71.0297 24.6137 71.319 24.6137C71.5609 24.6137 71.6654 24.7769 71.7502 25.2883C71.9616 26.5599 72.9081 27.3319 74.2562 27.3319C75.5768 27.3319 76.5 26.5953 76.8536 25.2596C77.0042 24.6905 76.9783 24.4807 76.6795 23.853C76.3214 23.1004 75.7049 22.601 73.611 21.3678C72.4492 20.6834 71.6275 19.7683 71.3604 18.8612ZM30.3138 15.2693C30.0281 15.2693 29.9166 15.174 29.9166 14.9295C29.9166 14.6058 30.0281 14.5897 32.2669 14.5897C34.345 14.5897 34.6109 14.6216 34.5633 14.8651C34.5334 15.0166 34.2463 15.2268 33.9248 15.3323L33.3402 15.5241L33.2903 19.8565C33.2569 22.7474 33.3039 24.4151 33.4314 24.8684C33.8105 26.2168 34.9669 26.9922 36.5985 26.9922C37.7344 26.9922 38.398 26.7211 39.2316 25.9159C40.1283 25.0503 40.2713 24.2278 40.2684 19.9531C40.2657 15.7365 40.1938 15.3885 39.3068 15.3011C38.9031 15.2611 38.7679 15.1651 38.7679 14.9188C38.7679 14.6116 38.9011 14.5897 40.7719 14.5897C42.6646 14.5897 42.7759 14.6086 42.7759 14.9295C42.7759 15.1388 42.6637 15.2703 42.4836 15.2718C41.7102 15.2788 41.696 15.3539 41.5919 19.9775C41.4839 24.7789 41.383 25.3474 40.4299 26.5235C40.155 26.8628 39.4995 27.3555 38.9733 27.6185C38.1157 28.0469 37.8429 28.0961 36.3463 28.0933C34.9667 28.0904 34.5311 28.0224 33.8412 27.7018C32.8342 27.2338 32.1794 26.6281 31.6965 25.7179C31.3595 25.0826 31.3307 24.7388 31.2527 20.4341C31.1633 15.5068 31.1201 15.2693 30.3138 15.2693ZM45.9412 15.2693C45.5594 15.2693 45.448 15.1925 45.448 14.9295C45.448 14.6109 45.5547 14.5906 47.1597 14.6036L48.8716 14.6176L49.6906 15.5805C50.1408 16.1101 51.6086 17.7668 52.9521 19.2618C54.2957 20.757 55.8382 22.4962 56.3798 23.1269C56.9215 23.7578 57.4313 24.2738 57.5128 24.2738C57.5965 24.2738 57.6383 22.492 57.6084 20.1813L57.5557 16.0889L57.0871 15.6791C56.8294 15.4536 56.4351 15.2693 56.2104 15.2693C55.9117 15.2693 55.8023 15.1769 55.8023 14.9247C55.8023 14.5929 55.8875 14.5819 58.0985 14.6274C59.9785 14.6661 60.3948 14.7197 60.3948 14.9225C60.3948 15.0671 60.1623 15.2188 59.8365 15.2866C59.5296 15.3505 59.1914 15.4912 59.0851 15.5992C58.9479 15.7387 58.878 17.5422 58.844 21.8186L58.7961 27.8416H58.3121C57.8954 27.8416 57.3994 27.3629 54.7476 24.4012C53.0534 22.5089 51.0757 20.2599 50.3529 19.4036C49.6299 18.5471 48.9821 17.8398 48.9133 17.8321C48.7194 17.8099 48.7663 25.4618 48.9646 26.1882C49.1192 26.7542 49.2255 26.8516 49.8823 27.0304C50.4112 27.1743 50.6251 27.3203 50.6251 27.5371C50.6251 27.8155 50.4235 27.8416 48.2871 27.8416C46.1123 27.8416 45.9491 27.8194 45.9491 27.5231C45.9491 27.3062 46.1064 27.1726 46.4425 27.1042C47.4622 26.8967 47.5299 26.5674 47.5871 21.5339C47.6192 18.7148 47.5722 16.7423 47.4628 16.3293C47.2706 15.603 46.7916 15.2693 45.9412 15.2693ZM63.4526 15.2693C63.0948 15.2693 62.9834 15.1886 62.9834 14.9295C62.9834 14.6048 63.0948 14.5897 65.4885 14.5897C67.8821 14.5897 67.9936 14.6048 67.9936 14.9295C67.9936 15.1787 67.8821 15.2693 67.576 15.2693C67.3464 15.2693 67.0052 15.4253 66.8177 15.6159C66.487 15.9525 66.4784 16.1198 66.5256 21.3214C66.5714 26.3991 66.5911 26.6929 66.8981 26.9211C67.0765 27.0537 67.3958 27.1621 67.6079 27.1621C67.8821 27.1621 67.9936 27.26 67.9936 27.5019C67.9936 27.8266 67.8821 27.8416 65.4885 27.8416C63.1517 27.8416 62.9834 27.8202 62.9834 27.5236C62.9834 27.2844 63.1473 27.1788 63.645 27.0978C64.6333 26.9371 64.6838 26.6079 64.6222 20.7345C64.573 16.031 64.5518 15.7377 64.2458 15.5102C64.0674 15.3777 63.7105 15.2693 63.4526 15.2693ZM80.9266 15.2693C80.6981 15.2693 80.5244 15.14 80.4703 14.9295C80.3861 14.6009 80.4654 14.5897 82.8725 14.5897C85.2505 14.5897 85.3618 14.6048 85.3618 14.9295C85.3618 15.1906 85.2505 15.2693 84.8812 15.2693C83.8299 15.2693 83.8536 15.4636 85.4448 19.9068C86.2545 22.1685 87.041 24.3169 87.1921 24.681L87.4669 25.3432L88.7424 21.8777C90.2439 17.7986 90.439 17.0442 90.184 16.3002C90.0063 15.7817 89.3152 15.2693 88.7938 15.2693C88.6464 15.2693 88.5349 15.1232 88.5349 14.9295C88.5349 14.6043 88.6464 14.5897 91.1236 14.5897C93.6007 14.5897 93.7121 14.6043 93.7121 14.9295C93.7121 15.1713 93.6007 15.2693 93.3265 15.2693C92.6244 15.2693 92.3147 15.6502 92.4156 16.3903C92.5195 17.1521 95.3918 25.3399 95.5123 25.2174C95.7082 25.0181 98.8892 16.2039 98.8892 15.8604C98.8892 15.4487 98.6061 15.2693 97.957 15.2693C97.6646 15.2693 97.5531 15.1757 97.5531 14.9295C97.5531 14.6086 97.6646 14.5897 99.5573 14.5897C101.257 14.5897 101.561 14.6298 101.561 14.8534C101.561 14.9985 101.353 15.191 101.098 15.2812C100.526 15.4842 100.382 15.7159 99.6641 17.5931C99.3488 18.4174 98.3618 20.9974 97.4707 23.3259C96.5797 25.6548 95.8123 27.6617 95.7656 27.7858C95.7187 27.91 95.4425 28.0116 95.1516 28.0116H94.6231L93.4235 24.826C92.7636 23.0741 91.9841 20.9984 91.6914 20.2135C91.1894 18.8686 91.1473 18.8101 90.9585 19.194C90.8483 19.4183 90.0557 21.4977 89.1969 23.8149L87.6358 28.0282L87.0531 27.9774L86.4705 27.9266L84.2482 21.9935C83.0066 18.6787 81.8649 15.8857 81.6608 15.6648C81.4598 15.4472 81.1296 15.2693 80.9266 15.2693ZM114.319 15.3413C114.291 15.2768 114.292 15.0449 114.292 15.0449C114.292 15.0449 114.285 14.9612 114.32 14.9166C114.354 14.8721 114.366 14.8709 114.489 14.859L114.49 14.8589C114.941 14.8151 115.846 14.7414 116.601 14.7078C116.67 14.7047 116.747 14.7011 116.83 14.6973L116.832 14.6972L116.833 14.6971L116.833 14.6971C117.664 14.6586 119.151 14.6071 120.173 14.6593C122.134 14.7593 123.529 15.7269 124.004 17.3259C124.479 18.9249 124.228 20.4258 123.58 21.3812C122.932 22.3366 121.843 23.1592 120.032 23.1057C118.537 23.0615 118.137 22.7758 117.818 22.5475C117.75 22.4992 117.686 22.4535 117.616 22.4133V24.4524C117.632 25.8431 117.644 26.511 117.749 26.7583C117.891 27.0911 118.212 27.2962 118.838 27.4534C118.838 27.4534 119.121 27.5211 119.195 27.5934C119.268 27.6657 119.268 27.8262 119.268 27.8262C119.268 27.8262 119.283 27.9762 119.224 28.0527C119.165 28.1292 119.052 28.1139 119.052 28.1139L116.28 28.0911L114.609 28.0866C114.609 28.0866 114.433 28.1209 114.368 28.0489C114.302 27.9768 114.308 27.8266 114.308 27.8266C114.308 27.8266 114.322 27.6647 114.399 27.5923C114.476 27.5198 114.761 27.4389 114.761 27.4389C115.406 27.2541 115.685 27.0587 115.831 26.6905C115.949 26.3936 115.95 25.8432 115.949 21.3513C115.947 17.0915 115.941 16.2968 115.846 16.0683C115.704 15.73 115.349 15.6404 114.845 15.5128L114.844 15.5127C114.744 15.4874 114.638 15.4606 114.527 15.4301C114.527 15.4301 114.347 15.4059 114.319 15.3413ZM122.39 18.8173C122.39 19.5158 122.378 20.6094 121.65 21.3084C120.922 22.0075 119.488 22.1988 118.514 22.0042C118.207 21.9429 118.032 21.8483 117.896 21.7754L117.883 21.7681L117.634 21.6342L117.619 19.1799C117.61 17.6422 117.626 16.6403 117.662 16.4971C117.694 15.6862 118.865 15.5854 119.438 15.6154C121.887 15.6154 122.319 17.722 122.39 18.8173ZM106.629 14.6849C106.629 14.6849 106.51 14.7317 106.328 14.8019L105.675 15.1467L105.204 16.3468C104.945 17.0069 104.471 18.2186 104.151 19.0395C103.568 20.5346 103.183 21.5169 102.778 22.5422C102.659 22.8438 102.299 23.7622 101.979 24.5831C101.658 25.4038 101.338 26.185 101.267 26.319C101.255 26.3413 101.243 26.3653 101.229 26.3906C101.05 26.7345 100.739 27.3319 100.189 27.4222C100.189 27.4222 99.8868 27.4526 99.7748 27.5654C99.6628 27.6785 99.6736 27.7708 99.6736 27.7708V27.9131C99.6736 27.9131 99.6838 27.982 99.7473 28.0163C99.8107 28.0507 99.8966 28.0527 99.8966 28.0527L101.908 28.0294H103.987C103.987 28.0294 104.134 28.0469 104.19 27.9989C104.247 27.9509 104.263 27.8797 104.263 27.8797V27.7299C104.263 27.7299 104.234 27.5674 104.151 27.504C104.069 27.4407 103.761 27.3973 103.761 27.3973C102.928 27.2856 102.785 26.643 102.888 26.0652C102.938 25.7812 103.273 24.731 103.649 23.6737L103.78 23.3083L105.958 23.2913C107.156 23.2819 108.19 23.2882 108.256 23.3054C108.351 23.3298 108.483 23.6042 108.872 24.5816C109.461 26.0625 109.508 26.2429 109.378 26.52C109.37 26.5369 109.361 26.5554 109.352 26.5755C109.23 26.8435 108.992 27.3641 108.394 27.4171C108.394 27.4171 108.076 27.4283 107.997 27.5252C107.918 27.6223 107.935 27.7338 107.935 27.7338V27.8821C107.935 27.8821 107.956 27.969 107.997 28.0034C108.038 28.0378 108.107 28.0291 108.107 28.0291L110.084 28.0146L112.863 28.0145C112.863 28.0145 112.972 28.0263 113.002 27.9836C113.032 27.9408 113.038 27.8904 113.038 27.8904V27.6935C113.038 27.6935 113.026 27.5888 112.972 27.531C112.919 27.4734 112.558 27.4125 112.558 27.4125C112.098 27.3367 111.869 26.9487 111.698 26.6598C111.654 26.586 111.615 26.5188 111.576 26.4649C111.497 26.3547 111.214 25.7513 110.993 25.1709C110.771 24.5906 110.272 23.2795 109.883 22.2576C109.494 21.2358 108.951 19.8103 108.677 19.09C108.402 18.3696 107.881 16.9989 107.518 16.044C107.458 15.8873 107.405 15.7465 107.357 15.6205L107.357 15.6199C107.113 14.9787 107.015 14.7199 106.988 14.6849C106.901 14.5711 106.629 14.6849 106.629 14.6849ZM106.5 18.587C106.412 18.3693 106.258 17.9787 106.157 17.719C105.973 17.2471 105.904 17.1384 105.847 17.2359C105.83 17.2644 105.715 17.5869 105.591 17.9527C104.785 20.3211 104.419 21.3876 104.346 21.5885C104.3 21.7149 104.263 21.845 104.263 21.8779C104.263 21.9156 104.918 21.9376 106.042 21.9376C107.02 21.9376 107.82 21.9252 107.82 21.91C107.82 21.8949 107.733 21.6688 107.626 21.4075C107.52 21.1461 107.259 20.4937 107.046 19.9577C106.834 19.4216 106.588 18.8049 106.5 18.587Z" fill="#DDDDDD"/>
</g>
<defs>
<clipPath id="clip0_73_3445">
<rect width="124" height="40" fill="white" transform="translate(0.25)"/>
</clipPath>
</defs>
</svg>
